<mxfile host="app.diagrams.net" modified="2024-02-08T17:33:40.156Z" agent="Mozilla/5.0 (Windows NT 10.0; Win64; x64) AppleWebKit/537.36 (KHTML, like Gecko) Chrome/121.0.0.0 Safari/537.36" version="23.1.1" etag="MzIsEYXAVmAsCPTxeOPd" type="github">
  <diagram name="Strona-1" id="KYNyZUIns6j13QtR6GxY">
    <mxGraphModel>
      <root>
        <mxCell id="0" />
        <mxCell id="1" parent="0" />
      </root>
    </mxGraphModel>
  </diagram>
</mxfile>
